Coordinates
version=1
nRows=29
nColumns=24
inDegrees=yes

Units are S.I. units (second, meters, Newtons, ...)
Angles are in degrees.

endheader
time	pelvis_tilt	pelvis_list	pelvis_rotation	pelvis_tx	pelvis_ty	pelvis_tz	hip_flexion_r	hip_adduction_r	hip_rotation_r	knee_angle_r	ankle_angle_r	subtalar_angle_r	mtp_angle_r	hip_flexion_l	hip_adduction_l	hip_rotation_l	knee_angle_l	ankle_angle_l	subtalar_angle_l	mtp_angle_l	lumbar_extension	lumbar_bending	lumbar_rotation
      1.73000000	     17.83875181	     -7.22709110	      2.02479500	     -0.03018035	      0.95086218	      0.27452422	    -25.50357869	     11.46989103	      2.60633108	     -5.02000448	     21.90919727	      3.01712992	     19.13093343	     11.23661194	     -8.29882850	     -7.53113419	    -34.27516110	     19.29217335	      3.35596072	     39.05517676	    -34.41675779	      9.39255513	      8.60367712
      1.73500000	     18.33676609	     -6.90812103	      2.01694460	     -0.02345239	      0.95084889	      0.27426269	    -26.68258058	     11.09180552	      2.35790167	     -4.73217820	     22.26025958	      3.58817199	     17.80189841	     10.32953189	     -7.82476609	     -7.97317189	    -31.63768852	     18.66930312	      3.80738457	     38.97789438	    -34.91007657	      9.03658719	      8.50843100
      1.74000000	     18.78106303	     -6.67242029	      1.76897206	     -0.01653287	      0.95079744	      0.27444508	    -27.83188656	     10.69963235	      2.41130917	     -4.44107641	     22.55662427	      4.08896625	     17.00007967	      9.41118436	     -7.50641242	     -8.75780107	    -29.02479498	     18.07490603	      4.48380971	     38.67674911	    -35.35974443	      8.61751911	      8.62700328
      1.74500000	     19.21823320	     -6.41063453	      1.59106006	     -0.00965490	      0.95069713	      0.27436903	    -28.94135681	     10.29912110	      2.39534825	     -4.20463452	     22.88700640	      4.49906199	     16.40164312	      8.47295677	     -7.09279732	     -9.36227735	    -26.34761357	     17.33956210	      5.03501543	     38.48416832	    -35.79798644	      8.22469575	      8.69753294
      1.75000000	     19.55070712	     -6.21069964	      1.33093788	     -0.00275437	      0.95045010	      0.27442344	    -29.88713053	      9.92309517	      2.39637474	     -4.06077686	     23.22562081	      4.93122509	     15.94355935	      7.65744767	     -6.76353209	    -10.15194874	    -23.74414975	     16.51634494	      5.70352385	     38.36010561	    -36.13826228	      7.85547203	      8.86026904
      1.75500000	     19.84043318	     -6.08197681	      1.16372792	      0.00401079	      0.95000162	      0.27440048	    -30.73764847	      9.67024016	      2.42528023	     -3.98372126	     23.56007786	      5.15889562	     15.61087549	      6.97780882	     -6.49179472	    -10.83591926	    -21.30866759	     15.75318622	      6.35109594	     38.25010160	    -36.43411006	      7.58480266	      9.00165304
      1.76000000	     19.99853954	     -6.02181756	      1.03438706	      0.01083625	      0.94930004	      0.27429407	    -31.41708358	      9.50606158	      2.43306910	     -3.95617119	     23.82961096	      5.44334451	     15.40125281	      6.45930441	     -6.27630597	    -11.38649458	    -18.93631580	     14.98465583	      6.99588990	     38.20664966	    -36.57342727	      7.41337923	      9.16900145
      1.76500000	     20.29745309	     -5.84998639	      0.93815411	      0.01769761	      0.94873900	      0.27415488	    -32.28725467	      9.23081029	      2.24428850	     -3.86368155	     24.10644772	      5.89328005	     15.08913681	      5.75267546	     -5.92447033	    -11.92176860	    -16.56197997	     14.07710942	      7.59634296	     38.28383968	    -36.85137235	      7.14547941	      9.18057176
      1.77000000	     20.57772487	     -5.68665567	      0.88821083	      0.02464935	      0.94809090	      0.27386780	    -33.15483259	      8.97701457	      2.06346927	     -3.74089455	     24.36909034	      6.35393855	     14.74873579	      5.08698887	     -5.55665618	    -12.36788767	    -14.30013759	     13.29306509	      8.19804477	     38.46902205	    -37.10029336	      6.91563887	      9.14621499
      1.77500000	     20.64429763	     -5.62146136	      0.86328896	      0.03152501	      0.94712187	      0.27342379	    -33.69004555	      8.83472434	      1.84903194	     -3.78668765	     24.73972470	      6.92055026	     14.38538076	      4.72515093	     -5.29042392	    -12.72162619	    -12.23774068	     12.61449918	      8.74899576	     38.86032339	    -37.13760392	      6.83597924	      9.17046127
      1.78000000	     20.70122423	     -5.60545929	      0.87614685	      0.03820969	      0.94611996	      0.27278832	    -34.16935009	      8.75505644	      1.70879504	     -3.89186104	     25.04110050	      7.29848789	     14.19469951	      4.37641220	     -5.03887994	    -12.90673405	    -10.24677943	     11.96495821	      9.03623525	     39.14222877	    -37.18389787	      6.81810034	      9.27795049
      1.78500000	     20.66575437	     -5.59954378	      0.99096936	      0.04496347	      0.94490280	      0.27210711	    -34.55665815	      8.75807299	      1.50241349	     -3.98392520	     25.34421012	      7.55703691	     14.11347024	      4.19509275	     -4.81385468	    -13.01064863	     -8.48109672	     11.56091875	      9.59769098	     39.33374480	    -37.10683639	      6.87425438	      9.22299959
      1.79000000	     20.71534622	     -5.60934905	      1.09534371	      0.05153883	      0.94373220	      0.27153388	    -35.00624640	      8.77556681	      1.30787962	     -4.11441586	     25.63364359	      7.88912494	     14.12725854	      3.99877026	     -4.63123371	    -13.12632851	     -6.99410711	     11.33367805	     10.21333969	     39.40852203	    -37.14644377	      6.93131690	      9.23744948
      1.79500000	     20.61063456	     -5.65217203	      1.12441424	      0.05818989	      0.94245431	      0.27107372	    -35.25922850	      8.78357209	      1.21121972	     -4.31457004	     25.92217586	      8.18597505	     14.17702289	      4.00655935	     -4.50233893	    -13.29104542	     -5.76988602	     11.24899902	     10.82931129	     39.34891540	    -37.02456732	      6.96138916	      9.32897447
      1.80000000	     20.56841806	     -5.73532831	      1.36573453	      0.06477679	      0.94110486	      0.27023187	    -35.59325694	      8.94816836	      0.99173198	     -4.45680618	     26.08559298	      8.36498607	     14.21774135	      4.09157577	     -4.42160453	    -13.32185471	     -4.90552608	     11.38047334	     11.52983210	     39.31632286	    -36.94062442	      7.14925391	      9.25135261
      1.80500000	     20.38630089	     -5.81392004	      1.57597515	      0.07167322	      0.93966017	      0.26935957	    -35.74288522	      9.09523451	      0.73364408	     -4.68644898	     26.26156459	      8.55871354	     14.29368430	      4.33434441	     -4.32981553	    -13.44152527	     -4.26157506	     11.62341813	     12.18262803	     39.22749614	    -36.70868786	      7.34342782	      9.12834842
      1.81000000	     20.11841658	     -6.00286141	      1.87532337	      0.07835374	      0.93806086	      0.26821795	    -35.68255591	      9.37976324	      0.44134935	     -5.11047571	     26.48393685	      8.82655922	     14.49368938	      4.81918834	     -4.36442335	    -13.36877555	     -4.02893674	     12.04300313	     12.65189148	     38.60147805	    -36.39406330	      7.69792777	      9.13487111
      1.81500000	     19.97051942	     -6.07050081	      2.20140998	      0.08536273	      0.93654236	      0.26728669	    -35.88371369	      9.59290796	      0.06878297	     -5.32926605	     26.61333618	      8.96389151	     14.61029540	      5.18791162	     -4.31068289	    -13.40166817	     -4.04969335	     12.44193571	     13.30350921	     38.58952516	    -36.14924814	      7.91673561	      8.88214116
      1.82000000	     19.79333506	     -6.19950811	      2.37211426	      0.09232189	      0.93510464	      0.26647789	    -35.97242523	      9.75513229	     -0.14096398	     -5.70813826	     26.82034390	      9.20587357	     14.82988611	      5.61915140	     -4.34983426	    -13.43863411	     -4.34846331	     12.82272873	     13.73575022	     38.51845662	    -35.90559005	      8.12406084	      8.90160292
      1.82500000	     19.72409799	     -6.26229943	      2.42629601	      0.09953381	      0.93389864	      0.26617904	    -36.23472184	      9.80446547	     -0.26506660	     -6.03047528	     26.96447214	      9.52452173	     15.15467195	      5.88167523	     -4.36659381	    -13.46789803	     -4.79253077	     13.19596758	     13.87423088	     38.42133904	    -35.75850434	      8.16968576	      8.94052994
      1.83000000	     19.78405186	     -6.15374434	      2.47162861	      0.10677045	      0.93297840	      0.26585367	    -36.61846719	      9.67442830	     -0.52467039	     -6.38446457	     26.96529779	      9.84118254	     16.91272043	      5.97354455	     -4.20009925	    -13.24968006	     -5.36804614	     13.45121666	     13.59787042	     37.42717645	    -35.76059037	      8.03849948	      8.75903351
      1.83500000	     19.84546539	     -6.09420919	      2.36157072	      0.11409944	      0.93218033	      0.26575372	    -36.96587903	      9.48505866	     -0.63236649	     -6.85668769	     27.10568632	     10.22288796	     17.21673798	      6.05778529	     -4.12902022	    -13.26335040	     -6.12164656	     13.61003218	     13.52137422	     37.32478560	    -35.77477055	      7.85603948	      8.85342852
      1.84000000	     19.92296486	     -5.96064163	      2.27214811	      0.12146205	      0.93144116	      0.26540644	    -37.31460852	      9.21274972	     -0.85560736	     -7.35506718	     27.27637413	     10.89213535	     17.61100805	      6.10779692	     -3.96198262	    -13.12068742	     -6.97668135	     13.75181038	     13.25436056	     37.17504907	    -35.78960090	      7.63401817	      8.84853036
      1.84500000	     20.20816342	     -5.66773193	      2.22695447	      0.12896741	      0.93106168	      0.26491669	    -37.94642824	      8.80311987	     -1.23456124	     -7.75570155	     27.17627450	     11.55167379	     18.96227133	      5.86243714	     -3.62060566	    -12.92601593	     -7.83695315	     13.81000193	     12.90643606	     36.52880065	    -36.00947321	      7.30299662	      8.71568166
      1.85000000	     20.22003515	     -5.45452290	      2.18532136	      0.13662430	      0.93026117	      0.26441967	    -38.18693516	      8.47547287	     -1.58203159	     -8.34372045	     27.26984660	     12.11081100	     19.93354545	      6.00416830	     -3.38215448	    -12.70142648	     -8.97441492	     14.05742483	     12.68926255	     36.00531330	    -35.92332259	      7.05386296	      8.58529813
      1.85500000	     20.28500771	     -5.23811864	      2.13443174	      0.14424961	      0.92951002	      0.26409948	    -38.51223936	      8.14739093	     -1.81695995	     -8.86713088	     27.25456497	     12.57273347	     20.92159773	      6.05438562	     -3.13903548	    -12.41017567	    -10.12186767	     14.30410292	     12.35500007	     35.38470686	    -35.90344446	      6.76710488	      8.45582906
      1.86000000	     20.25735321	     -5.07982811	      2.05212836	      0.15190447	      0.92871997	      0.26394852	    -38.68688821	      7.86449429	     -1.95155336	     -9.49223498	     27.32589685	     12.99755541	     21.26952780	      6.18089446	     -2.97977680	    -12.10485248	    -11.30538380	     14.51139485	     12.19770224	     35.27662489	    -35.78972682	      6.50376046	      8.40708992
      1.86500000	     20.27770329	     -4.91206156	      1.92173000	      0.15950495	      0.92804762	      0.26370097	    -38.84628184	      7.51303768	     -2.15215790	    -10.23638987	     27.33374677	     13.54276234	     21.86425153	      6.19692379	     -2.76414182	    -11.70097171	    -12.41639252	     14.63781707	     11.61006472	     35.13103659	    -35.73727477	      6.22201982	      8.36424533
      1.87000000	     20.51472948	     -4.63064694	      1.74946005	      0.16729832	      0.92774427	      0.26369185	    -39.28095397	      7.04725288	     -2.35284431	    -10.91793206	     26.99914709	     13.83935525	     24.71293244	      5.91123990	     -2.39594060	    -11.53363887	    -13.36585765	     13.99975517	     10.82256163	     35.77138955	    -35.89184957	      5.79398167	      8.20994541
